<?xml version="1.0" encoding="utf-8"?>
<!-- Generator: Adobe Illustrator 27.1.1, SVG Export Plug-In . SVG Version: 6.00 Build 0)  -->
<svg version="1.1" id="レイヤー_1" xmlns="http://www.w3.org/2000/svg" xmlns:xlink="http://www.w3.org/1999/xlink" x="0px"
	 y="0px" viewBox="0 0 500 500" style="enable-background:new 0 0 500 500;" xml:space="preserve">
<style type="text/css">
	.st0{stroke:#231815;stroke-miterlimit:10;}
	.st1{fill:none;stroke:#231815;stroke-width:7;stroke-miterlimit:10;}
	.st2{fill:none;stroke:#231815;stroke-miterlimit:10;}
</style>
<g>
	<path class="st0" d="M89.21,185.36l45.89-38.81c-4.21-0.19-10.74-0.58-14.31-0.96c-5.89-0.77-11.58-5.57-11.58-11.14V89.68
		c0.21-5.38,4.84-9.61,10.74-9.61h30.94v-12.3h-54.1c-4.63,0-8.42-3.46-8.42-7.68c0-4.23,3.79-7.69,8.42-7.69h54.1V38.58
		c0-4.23,3.79-7.69,8.42-7.69c4.63,0,8.42,3.46,8.42,7.69v13.83h53.47c4.63,0,8.42,3.46,8.42,7.69c0,4.23-3.79,7.68-8.42,7.68
		h-53.47v12.3h30.95c5.89,0,10.53,4.42,10.53,9.61l-0.21,44.96c0,5.57-4.63,10.38-10.74,10.95c-4.63,0.58-12.84,0.77-16.63,0.96
		l42.94,35.16h4.21c4.63,0,8.42,3.46,8.42,7.69c0,4.03-3.79,7.49-8.42,7.49h-1.05c-6.95,0-12.42-2.11-18.1-7.11l-41.89-35.16v48.22
		c0,4.23-3.79,8.07-8.42,8.07c-4.63,0-8.42-3.84-8.42-8.07v-48.8l-50.31,42.07c-3.16,3.07-8.42,2.88-11.58,0
		C85.63,193.05,85.84,188.24,89.21,185.36z M150.89,95.25h-24.42l-0.21,10.38h24.63V95.25z M150.89,121h-24.63l0.21,9.8
		c7.79,0.96,17.68,1.15,24.42,1.34V121z M167.73,95.25v10.38h24.84V95.25H167.73z M167.73,132.14c8.63-0.19,18.31-0.96,24.84-1.54
		V121h-24.84V132.14z"/>
	<path class="st1" d="M266.67,106.4c-3.58,2.69-8.84,2.11-11.79-1.15c-2.95-3.27-2.53-8.07,1.05-10.76
		c10.1-7.69,32.63-25.55,45.47-36.7c3.37-2.88,8.63-2.69,12,0.19s3.37,7.69,0,10.57c-4.21,3.65-10.53,9.03-15.58,13.06v115.66
		c0,4.23-3.79,7.49-8.42,7.49c-4.63,0-8.42-3.27-8.42-7.49V94.87C275.93,98.71,270.04,103.71,266.67,106.4z M378.45,186.9h39.79
		c4.63,0,8.21,3.46,8.21,7.69c0,4.23-3.58,7.69-8.21,7.69h-98.73c-4.63,0-8.21-3.46-8.21-7.69c0-4.23,3.58-7.69,8.21-7.69h42.31
		v-50.53h-27.58c-4.63,0-8.21-3.27-8.21-7.49c0-4.23,3.58-7.68,8.21-7.68h27.58V82.57h-34.1c-4.63,0-8.21-3.27-8.21-7.49
		c0-4.23,3.58-7.69,8.21-7.69h85.68c4.63,0,8.42,3.46,8.42,7.69c0,4.23-3.79,7.49-8.42,7.49h-34.94v38.62h25.47
		c4.63,0,8.42,3.46,8.42,7.68c0,4.23-3.79,7.49-8.42,7.49h-25.47V186.9z M361.61,54.33V40.88c0-4.23,3.79-7.69,8.42-7.69
		c4.63,0,8.42,3.46,8.42,7.69v13.45c0,4.23-3.79,7.68-8.42,7.68C365.4,62.02,361.61,58.56,361.61,54.33z"/>
</g>
<g>
	<path d="M103.82,250.43v8.05c0,1.14-0.95,2.05-2.08,2.05s-2.05-0.92-2.05-2.05v-19.7c0-1.14,0.92-2.05,2.05-2.05
		s2.08,0.92,2.08,2.05v7.55h9.41v-7.55c0-1.14,0.92-2.05,2.05-2.05c1.14,0,2.05,0.92,2.05,2.05v19.7c0,1.14-0.92,2.05-2.05,2.05
		c-1.14,0-2.05-0.92-2.05-2.05v-8.05H103.82z"/>
	<path d="M129.43,258.48c0,1.14-0.92,2.08-2.05,2.08s-2.05-0.95-2.05-2.08v-19.79c0-1.14,0.92-2.05,2.05-2.05s2.05,0.92,2.05,2.05
		V258.48z"/>
	<path d="M141.27,238.09c0.82-0.69,1.86-1.07,2.94-1.07l6.88,0.03c1.77,0,3.16,1.42,3.16,3.16v2.43c0,1.14-0.92,2.05-2.05,2.05
		c-1.14,0-2.05-0.92-2.05-2.05v-1.45h-5.49c-0.41,0-0.79,0.13-1.1,0.38l-1.89,1.64c-0.32,0.28-0.51,0.66-0.51,1.1v8.62
		c0,0.44,0.19,0.82,0.51,1.11l1.7,1.55c0.28,0.28,0.69,0.41,1.1,0.41h5.62v-5.65h-2.84c-1.14,0-2.05-0.92-2.05-2.08
		c0-1.14,0.95-2.05,2.08-2.05h3.76c1.77,0,3.16,1.42,3.16,3.16v7.58c0,1.74-1.39,3.16-3.16,3.16l-7.04,0.03
		c-1.1,0-2.15-0.41-2.97-1.14l-2.65-2.3c-0.85-0.76-1.33-1.83-1.33-2.97v-10.2c0-1.14,0.5-2.21,1.36-2.94L141.27,238.09z"/>
	<path d="M173.63,238.15l7.04,19.73c0.38,1.07-0.16,2.27-1.23,2.65s-2.27-0.19-2.65-1.26l-1.04-2.97h-9.34l-1.17,3.03
		c-0.38,1.07-1.55,1.64-2.62,1.26s-1.64-1.55-1.26-2.62l7.04-19.83c0.41-1.1,1.45-1.86,2.62-1.86
		C172.21,236.32,173.25,237.05,173.63,238.15z M174.29,252.17l-3.25-9.28l-3.19,9.28H174.29z"/>
	<path d="M104.89,302.23c-1.17,0-2.27-0.47-3.06-1.26l-1.52-1.52c-0.95-1.23-1.26-2.08-1.26-3.06v-1.55c0-1.14,0.92-2.05,2.05-2.05
		s2.08,0.92,2.08,2.05c0,0.03-0.03,0.5-0.03,0.54c0.03,1.29,0.16,1.23,1.14,2.21c0,0.03,0.73,0.5,1.17,0.5c1.2,0,3.09,0,4.29,0
		c0.44,0,0.85-0.16,1.14-0.47c0.22-0.22,0.47-0.41,0.66-0.66c0.41-0.47,0.47-0.73,0.47-1.14c0-0.06,0-0.66,0-0.73
		c0-1.1-0.6-1.36-1.48-1.64l-8.62-2.84c-1.26-0.41-2.59-1.17-2.59-3.57v-2.05c0-1.17,0.44-2.24,1.26-3.06l1.58-1.48
		c0.79-0.82,1.93-1.26,3.09-1.26h4.89c1.14,0,2.37,0.44,3.19,1.26l1.48,1.48c0.82,0.82,1.23,1.67,1.26,3.06v1.23
		c0,1.14-0.92,2.05-2.05,2.05s-2.05-0.92-2.05-2.05c0-0.22,0-0.44,0-0.66c0-0.41-0.19-0.82-0.47-1.14
		c-0.22-0.22-0.44-0.44-0.66-0.66c-0.32-0.32-0.73-0.47-1.17-0.47c-1.1,0-2.94-0.03-4.07-0.03c-0.41,0-0.73,0.06-1.1,0.47
		c-0.13,0.19-0.35,0.35-0.66,0.69c-0.54,0.57-0.41,0.92-0.41,1.71c0,0.41,0.28,0.76,0.66,0.88l9.69,3.28
		c1.33,0.44,2.37,1.99,2.37,3.06v3.03c0,1.17-0.47,2.24-1.26,3.06l-1.52,1.52c-0.82,0.79-1.89,1.26-3.03,1.26H104.89z"/>
	<path d="M129.14,302.23c-1.17,0-2.27-0.44-3.06-1.26l-1.52-1.48c-0.79-0.82-1.26-1.93-1.26-3.06v-15.88c0-1.14,0.95-2.05,2.08-2.05
		c1.14,0,2.05,0.92,2.05,2.05c0,3.88,0,12.72,0,15.31c0,0.41,0.16,0.82,0.47,1.14c0.22,0.22,0.44,0.44,0.66,0.66
		c0.28,0.32,0.73,0.47,1.14,0.47c1.29,0,3.44,0,4.74,0c0.44,0,0.85-0.16,1.14-0.47c0.22-0.22,0.44-0.44,0.66-0.66
		c0.32-0.32,0.47-0.73,0.47-1.14c0-2.59,0-11.43,0-15.31c0-1.14,0.95-2.05,2.08-2.05c1.14,0,2.05,0.92,2.05,2.05v15.88
		c0,1.14-0.47,2.24-1.26,3.06l-1.52,1.48c-0.79,0.82-1.89,1.26-3.06,1.26H129.14z"/>
	<path d="M172.11,280.95v19.83c0,1.14-0.92,2.05-2.05,2.05c-1.14,0-2.05-0.92-2.05-2.05v-11.68l-5.34,11.52
		c-0.47,1.07-1.52,1.74-2.68,1.74c-1.17-0.03-2.21-0.73-2.65-1.8l-5.11-11.3v11.52c0,1.14-0.92,2.05-2.05,2.05
		c-1.14,0-2.05-0.92-2.05-2.05v-19.83c0-1.01,0.82-2.18,2.43-2.18c1.33,0.03,2.21,0.82,2.75,2.02l6.72,15.6l7.07-15.66
		c0.5-1.17,1.52-1.93,2.78-1.89C171.04,278.83,172.11,279.78,172.11,280.95z"/>
	<path d="M183.96,300.59c0,1.14-0.92,2.08-2.05,2.08s-2.05-0.95-2.05-2.08v-19.79c0-1.14,0.92-2.05,2.05-2.05s2.05,0.92,2.05,2.05
		V300.59z"/>
	<path d="M201.92,287.36l7.29,12.28c0.57,0.98,0.22,2.24-0.76,2.84c-0.98,0.57-2.24,0.22-2.81-0.76l-6.85-11.55l-2.68,2.4v8.21
		c0,1.14-0.92,2.05-2.05,2.05c-1.14,0-2.05-0.92-2.05-2.05v-20.05c0-1.14,0.92-2.05,2.05-2.05c1.14,0,2.05,0.92,2.05,2.05v6.31
		l8.56-7.7c0.85-0.76,2.15-0.69,2.9,0.16c0.76,0.82,0.69,2.15-0.16,2.9L201.92,287.36z"/>
	<path d="M229.08,280.25l7.04,19.73c0.38,1.07-0.16,2.27-1.23,2.65s-2.27-0.19-2.65-1.26l-1.04-2.97h-9.34l-1.17,3.03
		c-0.38,1.07-1.55,1.64-2.62,1.26s-1.64-1.55-1.26-2.62l7.04-19.83c0.41-1.11,1.45-1.86,2.62-1.86
		C227.66,278.42,228.7,279.15,229.08,280.25z M229.74,294.27l-3.25-9.28l-3.19,9.28H229.74z"/>
</g>
<g>
	<path class="st0" d="M248.76,421.1 M129.27,463.87 M426.45,297.87c0,4.04-4.75,7.53-11.32,7.95c-7.24,0.56-14.49,0.56-22.18-0.14
		c-6.79-0.7-11.54-4.18-11.54-8.37V234l-22.41,0.14v26.77c0,7.25-1.13,15.34-6.56,23.15l-13.81,18.55c-2.04,2.65-7.47,3.9-12,2.51
		c-4.3-1.25-6.34-4.6-4.07-7.39l13.81-18.41c4.07-5.58,4.53-12.41,4.53-18.41v-30.68c0-3.91,4.98-6.97,11.32-6.97h36.22
		c6.34,0,11.32,3.21,11.32,6.97v65.4c3.62,0.14,7.24,0.14,10.86-0.14v-5.86c0-2.79,3.39-5.02,7.92-5.02c4.53,0,7.92,2.23,7.92,5.02
		V297.87z"/>
</g>
<path class="st2" d="M149.69,325.8"/>
<g>
	<path class="st0" d="M149.69,325.8c69.72,1.53,101.18-3.35,122.68-17.01l-0.75-0.32c-0.96-0.65-5.5-3.25-9.73-7.25
		c-0.67-0.64-1.77-1.74-1.82-3.24c-0.06-1.69,1.11-3.41,3.41-4.57c3.85-1.81,9.51-1.39,12.68,0.98c1.36,1.26,2.94,2.37,4.53,3.49
		c6.11-7.25,11.09-12.97,11.09-12.97c4.53-5.3,4.98-7.53,5.43-14.5v-30.68l-16.3-0.14l-10.19,17.43c-2.04,2.79-7.02,4.04-11.54,2.93
		c-4.75-1.12-6.79-4.46-4.98-7.25l20.82-35.98c1.81-2.79,7.24-4.18,11.77-2.93c4.53,1.12,6.34,4.32,4.53,7.25l-4.07,7.67h16.75
		c6.11,0,11.32,3.07,11.32,6.97v34.72c0,8.09-2.72,13.25-7.7,19.66l-14.26,16.73c21.5,13.67,52.97,18.55,122.68,17.01
		c4.98-0.14,9.06,2.23,9.28,5.3c0.45,3.07-3.39,5.58-8.37,5.72c-15.14,0.36-28.67,0.42-40.85,0.15l0,0.13v79.39
		c0,2.47-2.76,4.58-6.81,4.58s-6.82-2.11-6.82-4.7V335.1l0-0.59c-37.02-1.74-60.06-7.21-77.93-17.54l-3.33,1.99
		c-23.29,13.45-55.36,18.66-115.69,18.13v0.24v77.11c0,2.39-2.76,4.45-6.82,4.45s-6.82-2.05-6.82-4.56v-76.99v-0.45
		c-1.02-0.02-2.05-0.04-3.09-0.07l0.19,0c-16.69-0.45-36.52-2.05-59.95-4.68c-4.91-0.57-8.5-3.41-7.78-6.43
		c0.49-3.04,4.73-5.04,9.64-4.47c22.89,2.67,48.16,4.04,48.66,4.06c0,0,0.01,0,0.01,0C142.8,325.48,146.26,325.75,149.69,325.8"/>
</g>
<g>
	<g>
		<path d="M237.24,352.26c-15.21,0-27.55,12.33-27.55,27.55c0,15.21,12.33,27.55,27.55,27.55s27.55-12.33,27.55-27.55
			C264.79,364.59,252.46,352.26,237.24,352.26z M237.24,398.23c-10.17,0-18.42-8.25-18.42-18.42s8.25-18.42,18.42-18.42
			s18.42,8.25,18.42,18.42S247.42,398.23,237.24,398.23z"/>
	</g>
</g>
<g>
	<g>
		<path d="M289.29,352.26c-15.21,0-27.55,12.33-27.55,27.55c0,15.21,12.33,27.55,27.55,27.55c15.21,0,27.55-12.33,27.55-27.55
			C316.84,364.59,304.51,352.26,289.29,352.26z M289.29,398.23c-10.17,0-18.42-8.25-18.42-18.42s8.25-18.42,18.42-18.42
			s18.42,8.25,18.42,18.42S299.46,398.23,289.29,398.23z"/>
	</g>
</g>
</svg>
