<?xml version="1.0" encoding="utf-8"?>
<!-- Generator: Adobe Illustrator 27.1.1, SVG Export Plug-In . SVG Version: 6.00 Build 0)  -->
<svg version="1.1" id="レイヤー_1" xmlns="http://www.w3.org/2000/svg" xmlns:xlink="http://www.w3.org/1999/xlink" x="0px"
	 y="0px" viewBox="0 0 1000 1000" style="enable-background:new 0 0 1000 1000;" xml:space="preserve">
<style type="text/css">
	.st0{fill:#ABCED8;}
</style>
<g>
	<g>
		<path class="st0" d="M696.24,104.76c-128.33,0-232.35,104.03-232.35,232.35s104.03,232.35,232.35,232.35
			s232.35-104.03,232.35-232.35S824.56,104.76,696.24,104.76z M696.24,501.8c-90.95,0-164.68-73.73-164.68-164.68
			s73.73-164.68,164.68-164.68s164.68,73.73,164.68,164.68S787.19,501.8,696.24,501.8z"/>
	</g>
</g>
<g>
	<g>
		<path class="st0" d="M349.18,393c-128.32,0-232.35,104.03-232.35,232.35s104.03,232.35,232.35,232.35s232.35-104.03,232.35-232.35
			S477.5,393,349.18,393z M349.18,790.04c-90.95,0-164.68-73.73-164.68-164.68s73.73-164.68,164.68-164.68
			s164.68,73.73,164.68,164.68S440.13,790.04,349.18,790.04z"/>
	</g>
</g>
</svg>
